<svg version="1.1" xmlns="http://www.w3.org/2000/svg" width="500" height="500">

<path d="M0 0 C3.98991175 1.32997058 5.55556463 3.95008841 8 7.1875 C8.989401 8.47279663 9.97898949 9.75794895 10.96875 11.04296875 C11.47277344 11.70216309 11.97679687 12.36135742 12.49609375 13.04052734 C14.80427227 16.0479041 17.1526499 19.02317167 19.5 22 C20.41688985 23.16649127 21.33355581 24.33315856 22.25 25.5 C22.930625 26.36625 22.930625 26.36625 23.625 27.25 C47 57 70.375 86.75 93.75 116.5 C94.20407227 117.07790283 94.65814453 117.65580566 95.12597656 118.2512207 C96.03941679 119.41379575 96.95282842 120.57639328 97.86621094 121.73901367 C100.20700377 124.71847036 102.54834581 127.69749287 104.890625 130.67578125 C105.36951172 131.28486328 105.84839844 131.89394531 106.34179688 132.52148438 C107.23874189 133.6622591 108.1358587 134.8028988 109.03320312 135.94335938 C112.70629045 140.61561728 116.35105033 145.30849329 120 150 C120.495 75.75 120.495 75.75 121 0 C123.31 1.98 125.62 3.96 128 6 C128.85640202 6.68515434 129.71280403 7.37030869 130.59515762 8.07622528 C140.11522057 15.69275683 148.69696743 23.03757206 150.21523666 35.66675568 C150.53712956 41.7238731 150.43277883 47.72182167 150.234375 53.78125 C150.21732658 56.41430899 150.20805491 59.04742853 150.20611572 61.68054199 C150.18776033 67.16262258 150.09430289 72.63904477 149.94824219 78.11914062 C149.78070874 84.4209722 149.71094057 90.71775241 149.6977632 97.02168322 C149.68468364 103.14136891 149.62406726 109.25931242 149.53778839 115.37840271 C149.50247767 117.95851148 149.47545297 120.53874837 149.45714569 123.11903381 C149.20521021 148.05377701 149.20521021 148.05377701 140 158 C138.61875047 159.95690785 137.25934597 161.929553 135.9296875 163.921875 C134.57934501 165.86543154 133.22778418 167.80814217 131.875 169.75 C131.19824219 170.72582031 130.52148438 171.70164062 129.82421875 172.70703125 C125.9875024 178.22091955 122.08028031 183.66350892 118 189 C114.42599926 185.50926451 111.08939746 181.88907964 107.875 178.0625 C107.39981934 177.49893799 106.92463867 176.93537598 106.43505859 176.35473633 C102.61593118 171.79632148 98.92739822 167.14380427 95.27368164 162.45239258 C91.12878936 157.13645266 86.88443311 151.90517757 82.62548828 146.68041992 C79.10687179 142.36373966 75.61548845 138.02701287 72.14453125 133.671875 C69.90114711 130.87683902 67.6390855 128.09769239 65.37451172 125.31982422 C59.28498612 117.84847863 53.27933072 110.31889081 47.34716797 102.72216797 C45.97604562 100.96937764 44.60015196 99.22044132 43.22265625 97.47265625 C38.36286116 91.30556777 33.53785205 85.11446845 28.76049805 78.88330078 C25.78340638 75.0053163 22.77508928 71.15313403 19.75 67.3125 C15.31451977 61.68124263 10.90150419 56.03285698 6.5 50.375 C5.90026367 49.60454346 5.30052734 48.83408691 4.68261719 48.0402832 C4.11704102 47.31284912 3.55146484 46.58541504 2.96875 45.8359375 C2.46794922 45.19188965 1.96714844 44.5478418 1.45117188 43.88427734 C-0.04947046 41.93576497 -1.5243625 39.96751667 -3 38 C-3.33 90.14 -3.66 142.28 -4 196 C-8.7751439 191.90701952 -13.45657657 187.79034098 -18.08203125 183.5390625 C-20.81805708 181.0318907 -20.81805708 181.0318907 -23.42529392 179.45371151 C-30.41836558 174.72028739 -30.41836558 174.72028739 -31.94813347 170.19572639 C-32.32186851 166.8151141 -32.38600476 163.55373001 -32.34155273 160.15258789 C-32.36389481 158.88150177 -32.38623688 157.61041565 -32.40925598 156.30081177 C-32.46740158 152.83040962 -32.46238294 149.36284325 -32.44204974 145.89211583 C-32.43070029 142.98031346 -32.45028907 140.06903978 -32.46959931 137.1573047 C-32.51462968 130.27327193 -32.50807306 123.39062052 -32.46850586 116.5065918 C-32.42876219 109.4467991 -32.47237965 102.39110155 -32.55852169 95.33181387 C-32.63001964 89.23942347 -32.64996405 83.14829974 -32.62985379 77.05552477 C-32.61828728 73.43069803 -32.62456377 69.80842078 -32.68014336 66.18394661 C-32.89952042 50.35291064 -32.6064394 38.08519708 -21.19607544 26.15213013 C-20.64684292 25.61388485 -20.0976104 25.07563957 -19.53173447 24.52108383 C-17.43470156 22.43863225 -15.62960445 20.15589569 -13.80859375 17.83203125 C-12.6882473 16.48938382 -11.56475528 15.14935221 -10.4375 13.8125 C-6.68019931 9.34833871 -3.13399427 4.92703745 0 0 Z " fill="#FCDB58" transform="translate(133,103)" data-index="1" style="visibility: visible;"></path>
<path d="M0 0 C-1.15154489 3.05523231 -2.33976158 5.75236924 -4.21484375 8.42578125 C-4.64796875 9.04904297 -5.08109375 9.67230469 -5.52734375 10.31445312 C-5.99269531 10.97380859 -6.45804688 11.63316406 -6.9375 12.3125 C-7.93632799 13.74600313 -8.9350222 15.17959948 -9.93359375 16.61328125 C-10.44390137 17.34240723 -10.95420898 18.0715332 -11.47998047 18.82275391 C-13.83917244 22.2020141 -16.16886481 25.60135523 -18.5 29 C-19.41650756 30.33344271 -20.33317469 31.66677575 -21.25 33 C-21.70375 33.66 -22.1575 34.32 -22.625 35 C-31.33333333 47.66666667 -40.04166667 60.33333333 -48.75 73 C-49.2042334 73.6607251 -49.6584668 74.3214502 -50.12646484 75.00219727 C-51.03816572 76.32826343 -51.94994885 77.65427306 -52.86181641 78.98022461 C-55.23015611 82.42427352 -57.5968256 85.86945359 -59.9609375 89.31640625 C-60.44884766 90.02732422 -60.93675781 90.73824219 -61.43945312 91.47070312 C-62.36316834 92.81668815 -63.28638585 94.16301493 -64.20898438 95.50976562 C-64.63244141 96.12658203 -65.05589844 96.74339844 -65.4921875 97.37890625 C-65.90049805 97.97977051 -66.30880859 98.58063477 -66.72949219 99.19970703 C-67.60527291 100.44067688 -68.52044359 101.65445522 -69.46582031 102.84326172 C-72.18924713 106.2901348 -72.18924713 106.2901348 -73.18359375 110.46875 C-71.39017529 114.30417958 -68.80013654 117.29415446 -66.0625 120.5 C-64.86711047 121.93374712 -63.67311483 123.36865747 -62.48046875 124.8046875 C-61.8879834 125.51463867 -61.29549805 126.22458984 -60.68505859 126.95605469 C-58.34434849 129.79529331 -56.107 132.69931884 -53.875 135.625 C-50.46865552 140.0879166 -47.0352081 144.52602392 -43.5625 148.9375 C-43.10472168 149.51902832 -42.64694336 150.10055664 -42.17529297 150.69970703 C-41.24740379 151.8779014 -40.31934346 153.05596099 -39.39111328 154.23388672 C-37.09125763 157.15371048 -34.79584055 160.07701893 -32.5 163 C-31.5833549 164.16668361 -30.66668823 165.33335027 -29.75 166.5 C-24.25 173.5 -18.75 180.5 -13.25 187.5 C-12.79536377 188.07854736 -12.34072754 188.65709473 -11.87231445 189.25317383 C-10.96428269 190.40901216 -10.05656296 191.56509571 -9.14916992 192.72143555 C-6.72801561 195.80595564 -4.30012239 198.88488422 -1.86328125 201.95703125 C-1.09757812 202.92479492 -1.09757812 202.92479492 -0.31640625 203.91210938 C0.66991201 205.158457 1.65812994 206.40330416 2.6484375 207.64648438 C6 211.8875378 6 211.8875378 6 213 C-1.82396013 213.55448745 -9.63654187 213.90010706 -17.48046875 213.734375 C-18.77106201 213.71600586 -20.06165527 213.69763672 -21.39135742 213.67871094 C-26.09615117 212.79383667 -27.77257127 211.31253252 -31.1875 208 C-32.1636833 206.31350446 -33.13757413 204.62239059 -33.99804688 202.87402344 C-35.88933179 199.33662017 -38.48294538 196.28396483 -40.9375 193.125 C-41.96251224 191.75214322 -42.98466251 190.37714488 -44.00390625 189 C-47.60935563 184.16339332 -51.34201884 179.43190113 -55.08203125 174.69921875 C-62.62843457 165.14948403 -70.07306355 155.51784208 -77.5 145.875 C-78.28375 144.85792969 -79.0675 143.84085938 -79.875 142.79296875 C-82.25409275 139.66603619 -84.57067542 136.4977396 -86.84375 133.29296875 C-87.2253125 132.86628906 -87.606875 132.43960938 -88 132 C-88.66 132 -89.32 132 -90 132 C-91.6379419 134.19308783 -93.14714732 136.38773866 -94.63671875 138.6796875 C-95.10429596 139.38668793 -95.57187317 140.09368835 -96.05361938 140.82211304 C-97.07020524 142.36075707 -98.08366015 143.90147315 -99.09439087 145.44396973 C-101.24363089 148.7236368 -103.40777047 151.99336209 -105.57139587 155.2635498 C-106.69376456 156.96008474 -107.81538659 158.65711386 -108.93629456 160.35461426 C-114.66696646 169.02808587 -120.48115731 177.64401641 -126.3125 186.25 C-127.67959925 188.27069549 -129.04660609 190.29144651 -130.41195679 192.31332397 C-131.28877807 193.60397279 -132.17209244 194.89023672 -133.06216431 196.17178345 C-135.39533115 199.54308987 -137.56510258 202.93818274 -139.59448242 206.50195312 C-145.91219436 217.24716932 -145.91219436 217.24716932 -151.4909668 219.25878906 C-155.34894848 219.57476307 -158.84113392 219.41474554 -162.6875 219 C-163.97333984 218.9278125 -165.25917969 218.855625 -166.58398438 218.78125 C-169.73536646 218.5938072 -172.86119266 218.33265664 -176 218 C-173.15279275 212.6953201 -170.20497771 207.66745223 -166.625 202.8125 C-162.14823345 196.66506549 -157.83585237 190.41532303 -153.5625 184.125 C-152.91418213 183.17141602 -152.26586426 182.21783203 -151.59790039 181.23535156 C-150.31894878 179.3538309 -149.04021605 177.47216143 -147.76171875 175.59033203 C-140.99278196 165.6376686 -134.13227976 155.74950394 -127.25 145.875 C-119.98312333 135.44688522 -112.81373392 124.954639 -105.66503906 114.4453125 C-98.92336653 104.54434591 -92.09908535 94.70187752 -85.25 84.875 C-78.59278396 75.32176054 -72.01338467 65.7177995 -65.46484375 56.08984375 C-61.10071362 49.67369748 -56.70322613 43.28069835 -52.30175781 36.89013672 C-49.64185317 33.02838907 -49.64185317 33.02838907 -46.98925781 29.16162109 C-46.08122031 27.84766417 -45.16125984 26.54186595 -44.22949219 25.24462891 C-41.59465411 21.53704837 -39.3788504 17.85316226 -37.3671875 13.76953125 C-28.59982718 -2.90789555 -17.67458593 -2.34534368 0 0 Z " fill="#FCDB58" transform="translate(355,186)" data-index="2" style="visibility: visible;"></path>
</svg>